<?xml version="1.0" encoding="UTF-8"?>
<svg xmlns="http://www.w3.org/2000/svg" xmlns:xlink="http://www.w3.org/1999/xlink" fill-opacity="1" color-rendering="auto" color-interpolation="auto" stroke="black" text-rendering="auto" stroke-linecap="square" width="847" stroke-miterlimit="10" stroke-opacity="1" shape-rendering="auto" fill="black" stroke-dasharray="none" font-weight="normal" stroke-width="1" height="308" font-family="'Dialog'" font-style="normal" stroke-linejoin="miter" font-size="12" stroke-dashoffset="0" image-rendering="auto">
  <!--Generated by ySVG-->
  <defs id="genericDefs"/>
  <g>
    <defs id="defs1">
      <clipPath clipPathUnits="userSpaceOnUse" id="clipPath1">
        <path d="M0 0 L847 0 L847 308 L0 308 L0 0 Z"/>
      </clipPath>
      <clipPath clipPathUnits="userSpaceOnUse" id="clipPath2">
        <path d="M-139 94 L708 94 L708 402 L-139 402 L-139 94 Z"/>
      </clipPath>
    </defs>
    <g fill="white" transform="translate(139,-94)" stroke="white">
      <rect x="-139" width="847" height="308" y="94" clip-path="url(#clipPath2)" stroke="none"/>
    </g>
    <g fill="lime" transform="matrix(1,0,0,1,139,-94)" stroke="lime">
      <rect x="507.25" y="273.5" clip-path="url(#clipPath2)" width="185.5" rx="4" ry="4" height="53" stroke="none"/>
    </g>
    <g font-family="sans-serif" font-size="13" transform="matrix(1,0,0,1,139,-94)">
      <text x="542.6108" xml:space="preserve" y="304.7893" clip-path="url(#clipPath2)" stroke="none">Graphite / Carbon</text>
    </g>
    <g stroke-linecap="butt" transform="matrix(1,0,0,1,139,-94)" stroke-miterlimit="1.45">
      <rect x="507.25" y="273.5" clip-path="url(#clipPath2)" fill="none" width="185.5" rx="4" ry="4" height="53"/>
    </g>
    <g fill="aqua" transform="matrix(1,0,0,1,139,-94)" stroke="aqua">
      <rect x="-122.75" y="230.5" clip-path="url(#clipPath2)" width="185.5" rx="4" ry="4" height="53" stroke="none"/>
    </g>
    <g font-family="sans-serif" font-size="13" transform="matrix(1,0,0,1,139,-94)">
      <text x="-101.0747" xml:space="preserve" y="261.7893" clip-path="url(#clipPath2)" stroke="none">Apache / Tomcat Logs</text>
    </g>
    <g stroke-linecap="butt" transform="matrix(1,0,0,1,139,-94)" stroke-miterlimit="1.45">
      <rect x="-122.75" y="230.5" clip-path="url(#clipPath2)" fill="none" width="185.5" rx="4" ry="4" height="53"/>
    </g>
    <g fill="rgb(153,204,255)" transform="matrix(1,0,0,1,139,-94)" stroke="rgb(153,204,255)">
      <rect x="177.25" y="230.5" clip-path="url(#clipPath2)" width="185.5" rx="4" ry="4" height="53" stroke="none"/>
    </g>
    <g font-family="sans-serif" font-size="13" transform="matrix(1,0,0,1,139,-94)">
      <text x="246.4629" xml:space="preserve" y="261.7893" clip-path="url(#clipPath2)" stroke="none">Logster</text>
    </g>
    <g stroke-linecap="butt" transform="matrix(1,0,0,1,139,-94)" stroke-miterlimit="1.45">
      <rect x="177.25" y="230.5" clip-path="url(#clipPath2)" fill="none" width="185.5" rx="4" ry="4" height="53"/>
    </g>
    <g fill="aqua" transform="matrix(1,0,0,1,139,-94)" stroke="aqua">
      <rect x="-124" y="109" clip-path="url(#clipPath2)" width="188" rx="4" ry="4" height="53" stroke="none"/>
    </g>
    <g font-family="sans-serif" font-size="13" transform="matrix(1,0,0,1,139,-94)">
      <text x="-114.3223" xml:space="preserve" y="140.2893" clip-path="url(#clipPath2)" stroke="none">Java app with exposed JMX</text>
    </g>
    <g stroke-linecap="butt" transform="matrix(1,0,0,1,139,-94)" stroke-miterlimit="1.45">
      <rect x="-124" y="109" clip-path="url(#clipPath2)" fill="none" width="188" rx="4" ry="4" height="53"/>
    </g>
    <g fill="rgb(153,204,255)" transform="matrix(1,0,0,1,139,-94)" stroke="rgb(153,204,255)">
      <rect x="177.25" y="109" clip-path="url(#clipPath2)" width="185.5" rx="4" ry="4" height="53" stroke="none"/>
    </g>
    <g font-family="sans-serif" font-size="13" transform="matrix(1,0,0,1,139,-94)">
      <text x="240.604" xml:space="preserve" y="140.2893" clip-path="url(#clipPath2)" stroke="none">JMXTrans</text>
    </g>
    <g stroke-linecap="butt" transform="matrix(1,0,0,1,139,-94)" stroke-miterlimit="1.45">
      <rect x="177.25" y="109" clip-path="url(#clipPath2)" fill="none" width="185.5" rx="4" ry="4" height="53"/>
    </g>
    <g fill="aqua" transform="matrix(1,0,0,1,139,-94)" stroke="aqua">
      <rect x="-124" y="333.5" clip-path="url(#clipPath2)" width="188" rx="4" ry="4" height="53" stroke="none"/>
    </g>
    <g font-family="sans-serif" font-size="13" transform="matrix(1,0,0,1,139,-94)">
      <text x="-110.4629" xml:space="preserve" y="364.7893" clip-path="url(#clipPath2)" stroke="none">System Metrics / Collectd</text>
    </g>
    <g stroke-linecap="butt" transform="matrix(1,0,0,1,139,-94)" stroke-miterlimit="1.45">
      <rect x="-124" y="333.5" clip-path="url(#clipPath2)" fill="none" width="188" rx="4" ry="4" height="53"/>
    </g>
    <g fill="rgb(153,204,255)" transform="matrix(1,0,0,1,139,-94)" stroke="rgb(153,204,255)">
      <rect x="176" y="333.5" clip-path="url(#clipPath2)" width="188" rx="4" ry="4" height="53" stroke="none"/>
    </g>
    <g font-family="sans-serif" font-size="13" transform="matrix(1,0,0,1,139,-94)">
      <text x="217.6541" xml:space="preserve" y="364.7893" clip-path="url(#clipPath2)" stroke="none">Collectd-Carbon</text>
    </g>
    <g stroke-linecap="butt" transform="matrix(1,0,0,1,139,-94)" stroke-miterlimit="1.45">
      <rect x="176" y="333.5" clip-path="url(#clipPath2)" fill="none" width="188" rx="4" ry="4" height="53"/>
    </g>
    <g fill="rgb(255,102,0)" transform="matrix(1,0,0,1,139,-94)" stroke="rgb(255,102,0)">
      <rect x="507.25" y="153.5" clip-path="url(#clipPath2)" width="185.5" rx="4" ry="4" height="53" stroke="none"/>
    </g>
    <g font-family="sans-serif" font-size="13" transform="matrix(1,0,0,1,139,-94)">
      <text x="576.2788" xml:space="preserve" y="184.7893" clip-path="url(#clipPath2)" stroke="none">Ganglia</text>
    </g>
    <g stroke-linecap="butt" transform="matrix(1,0,0,1,139,-94)" stroke-miterlimit="1.45">
      <rect x="507.25" y="153.5" clip-path="url(#clipPath2)" fill="none" width="185.5" rx="4" ry="4" height="53"/>
      <path fill="none" d="M62.7612 257 L166.2333 257" clip-path="url(#clipPath2)"/>
      <path d="M177.2333 257 L165.2333 251 L165.2333 263 Z" clip-path="url(#clipPath2)" stroke="none"/>
      <path fill="none" d="M362.7722 269.0885 L496.3382 286.4926" clip-path="url(#clipPath2)"/>
      <path d="M507.246 287.9139 L496.1219 280.4136 L494.5713 292.313 Z" clip-path="url(#clipPath2)" stroke="none"/>
      <path fill="none" d="M75.0063 135.5 L177.2375 135.5" clip-path="url(#clipPath2)"/>
      <path d="M64.0063 135.5 L76.0063 141.5 L76.0063 129.5 Z" clip-path="url(#clipPath2)" stroke="none"/>
      <path fill="none" d="M323.1335 161.9863 L536.9924 268.5916" clip-path="url(#clipPath2)"/>
      <path d="M546.837 273.4991 L538.7742 262.7757 L533.4207 273.5153 Z" clip-path="url(#clipPath2)" stroke="none"/>
      <path fill="none" d="M64.0063 360 L164.9802 360" clip-path="url(#clipPath2)"/>
      <path d="M175.9802 360 L163.9802 354 L163.9802 366 Z" clip-path="url(#clipPath2)" stroke="none"/>
      <path fill="none" d="M363.9807 342.9126 L496.435 318.83" clip-path="url(#clipPath2)"/>
      <path d="M507.2576 316.8623 L494.3778 313.1057 L496.5244 324.9121 Z" clip-path="url(#clipPath2)" stroke="none"/>
      <path fill="none" stroke-dasharray="6,2" d="M362.7722 148.0102 L507.246 167.4923" clip-path="url(#clipPath2)"/>
      <path fill="none" stroke-dasharray="6,2" d="M362.7722 235.3531 L507.246 201.6426" clip-path="url(#clipPath2)"/>
    </g>
  </g>
</svg>
